<svg xmlns="http://www.w3.org/2000/svg" width="256" height="256" viewBox="0 0 256 256" role="img" aria-labelledby="title desc">
  <title id="title">r.uby.dev</title>
  <desc id="desc">A faceted red ruby gemstone mark.</desc>
  <defs>
    <linearGradient id="body" x1="45" y1="35" x2="211" y2="224" gradientUnits="userSpaceOnUse">
      <stop offset="0" stop-color="#ff7468"/>
      <stop offset="0.42" stop-color="#cc342d"/>
      <stop offset="1" stop-color="#5b090d"/>
    </linearGradient>
    <linearGradient id="table" x1="75" y1="31" x2="166" y2="104" gradientUnits="userSpaceOnUse">
      <stop offset="0" stop-color="#fff3ec"/>
      <stop offset="0.26" stop-color="#ff8f84"/>
      <stop offset="1" stop-color="#d62f2c"/>
    </linearGradient>
    <linearGradient id="right" x1="150" y1="59" x2="219" y2="195" gradientUnits="userSpaceOnUse">
      <stop offset="0" stop-color="#bb2026"/>
      <stop offset="1" stop-color="#3c0407"/>
    </linearGradient>
    <linearGradient id="center" x1="99" y1="104" x2="146" y2="226" gradientUnits="userSpaceOnUse">
      <stop offset="0" stop-color="#ff6c61"/>
      <stop offset="0.48" stop-color="#c82d2a"/>
      <stop offset="1" stop-color="#8d1618"/>
    </linearGradient>
    <radialGradient id="glow" cx="38%" cy="22%" r="66%">
      <stop offset="0" stop-color="#fff8ed" stop-opacity="0.68"/>
      <stop offset="0.42" stop-color="#ffb0a7" stop-opacity="0.18"/>
      <stop offset="1" stop-color="#ffb0a7" stop-opacity="0"/>
    </radialGradient>
    <filter id="shadow" x="-18%" y="-18%" width="136%" height="146%">
      <feDropShadow dx="0" dy="13" stdDeviation="11" flood-color="#000" flood-opacity="0.34"/>
    </filter>
  </defs>

  <g filter="url(#shadow)">
    <path d="M33 91 78 30h100l45 61-95 134Z" fill="url(#body)" stroke="#250507" stroke-width="7" stroke-linejoin="round"/>

    <path d="M78 30h100l-50 61Z" fill="url(#table)" stroke="#250507" stroke-width="4" stroke-linejoin="round"/>
    <path d="M33 91h95l-52 44Z" fill="#e93c35" stroke="#250507" stroke-width="4" stroke-linejoin="round"/>
    <path d="M223 91h-95l52 44Z" fill="url(#right)" stroke="#250507" stroke-width="4" stroke-linejoin="round"/>
    <path d="M76 135 128 225 33 91Z" fill="#9f1b1d" stroke="#250507" stroke-width="4" stroke-linejoin="round"/>
    <path d="M180 135 128 225 223 91Z" fill="#62080d" stroke="#250507" stroke-width="4" stroke-linejoin="round"/>
    <path d="M76 135h104l-52 90Z" fill="url(#center)" stroke="#250507" stroke-width="4" stroke-linejoin="round"/>

    <path d="M78 30 128 91 76 135 33 91Z" fill="#d9322d" opacity="0.72"/>
    <path d="M178 30 128 91 180 135 223 91Z" fill="#8f1519" opacity="0.72"/>
    <path d="M128 91 76 135h104Z" fill="#ff6257" opacity="0.5"/>
    <path d="M49 91 84 43h43L86 96Z" fill="url(#glow)"/>
    <path d="M85 62 101 43h35L93 87Z" fill="#fff6eb" opacity="0.52"/>
    <path d="M97 153h62" fill="none" stroke="#ffaba2" stroke-width="4" stroke-linecap="round" opacity="0.25"/>
  </g>
</svg>
