<svg xmlns="http://www.w3.org/2000/svg" width="256" height="256" viewBox="0 0 256 256" role="img" aria-labelledby="title desc">
  <title id="title">r.uby.dev</title>
  <desc id="desc">A polished red gemstone mark for r.uby.dev.</desc>
  <defs>
    <linearGradient id="facet-bright" x1="61" y1="36" x2="180" y2="204" gradientUnits="userSpaceOnUse">
      <stop offset="0" stop-color="#fffbf7"/>
      <stop offset="0.2" stop-color="#ff8d82"/>
      <stop offset="0.55" stop-color="#d9342d"/>
      <stop offset="1" stop-color="#7f1015"/>
    </linearGradient>
    <linearGradient id="facet-red" x1="48" y1="49" x2="210" y2="211" gradientUnits="userSpaceOnUse">
      <stop offset="0" stop-color="#ff6158"/>
      <stop offset="0.45" stop-color="#c92828"/>
      <stop offset="1" stop-color="#5b090d"/>
    </linearGradient>
    <linearGradient id="facet-dark" x1="148" y1="65" x2="223" y2="178" gradientUnits="userSpaceOnUse">
      <stop offset="0" stop-color="#b91d22"/>
      <stop offset="1" stop-color="#450407"/>
    </linearGradient>
    <linearGradient id="shine" x1="67" y1="50" x2="115" y2="97" gradientUnits="userSpaceOnUse">
      <stop offset="0" stop-color="#fffaf0" stop-opacity="0.92"/>
      <stop offset="1" stop-color="#fffaf0" stop-opacity="0"/>
    </linearGradient>
    <filter id="lift" x="-18%" y="-18%" width="136%" height="145%">
      <feDropShadow dx="0" dy="14" stdDeviation="12" flood-color="#000" flood-opacity="0.35"/>
    </filter>
  </defs>

  <g filter="url(#lift)">
    <path d="M41 91 82 37h92l41 54-87 117Z" fill="#7a1217" opacity="0.92"/>
    <path d="M41 91 82 37h92l41 54-87 117Z" fill="url(#facet-red)" stroke="#220506" stroke-width="6" stroke-linejoin="round"/>

    <path d="M82 37 65 91h62Z" fill="url(#shine)"/>
    <path d="M82 37h92l-47 54Z" fill="#fa5a50"/>
    <path d="M174 37 215 91h-88Z" fill="url(#facet-dark)"/>

    <path d="M41 91h86l-47 38Z" fill="#e43b33"/>
    <path d="M215 91h-88l49 39Z" fill="#841018"/>
    <path d="M80 129 128 208 41 91Z" fill="#aa1d20"/>
    <path d="M176 130 128 208 215 91Z" fill="#5e080d"/>
    <path d="M80 129h96l-48 79Z" fill="url(#facet-bright)"/>

    <path d="M82 37 127 91 80 129 41 91Z" fill="#d9312b" opacity="0.88"/>
    <path d="M174 37 127 91 176 130 215 91Z" fill="#9d171d" opacity="0.85"/>
    <path d="M127 91 80 129h96Z" fill="#ff6b5f" opacity="0.55"/>

    <path d="M67 82 87 50h33L91 83Z" fill="#fff7ef" opacity="0.55"/>
    <path d="M99 46h55l-27 31Z" fill="#ffb0a7" opacity="0.28"/>
    <path d="M95 149h66" fill="none" stroke="#ffb1a8" stroke-width="4" stroke-linecap="round" opacity="0.28"/>
  </g>

  <g fill="none" stroke="#fff7f2" stroke-linecap="round" opacity="0.78">
    <path d="M65 31h19" stroke-width="5"/>
    <path d="M55 40h9" stroke-width="4"/>
    <path d="M195 202h14" stroke-width="4" opacity="0.42"/>
  </g>

  <text x="128" y="239" text-anchor="middle"
        font-family="ui-monospace, SFMono-Regular, Menlo, Consolas, monospace"
        font-size="22" font-weight="700" letter-spacing="0"
        fill="#fff7f2" stroke="#220506" stroke-width="4"
        paint-order="stroke">r.uby.dev</text>
</svg>
